<svg xmlns="http://www.w3.org/2000/svg" width="891" height="891" viewBox="0 0 891 891"><defs><style>.cls-1{fill:#e6e6e6;}</style></defs><title>Asset 3</title><g id="Layer_2" data-name="Layer 2"><g id="Layer_1-2" data-name="Layer 1"><polygon class="cls-1" points="844.104 281.365 844.104 234.469 844.104 187.583 797.208 187.583 797.208 140.687 750.313 140.687 750.313 93.792 703.417 93.792 656.531 93.792 656.531 46.896 609.635 46.896 562.739 46.896 562.739 0 515.844 0 468.948 0 422.052 0 375.156 0 328.261 0 328.261 46.896 281.365 46.896 234.469 46.896 234.469 93.792 187.583 93.792 140.687 93.792 140.687 140.687 93.792 140.687 93.792 187.583 46.896 187.583 46.896 234.469 46.896 281.365 0 281.365 0 328.261 0 375.156 0 422.052 0 468.948 0 515.844 0 562.739 0 609.635 46.896 609.635 46.896 656.531 46.896 703.417 93.792 703.417 93.792 750.313 140.687 750.313 140.687 797.208 187.583 797.208 187.583 844.104 234.469 844.104 281.365 844.104 281.365 891 328.261 891 328.261 844.104 328.261 797.208 281.365 797.208 234.469 797.208 234.469 750.313 187.583 750.313 187.583 703.417 140.687 703.417 140.687 656.531 93.792 656.531 93.792 609.635 140.687 609.635 187.583 609.635 187.583 562.739 187.583 515.844 140.687 515.844 140.687 468.948 140.687 422.052 140.687 375.156 187.583 375.156 187.583 328.261 187.583 281.365 187.583 234.469 187.583 187.583 234.469 187.583 281.365 187.583 281.365 234.469 328.261 234.469 375.156 234.469 422.052 234.469 468.948 234.469 515.844 234.469 562.739 234.469 609.635 234.469 609.635 187.583 656.531 187.583 703.417 187.583 703.417 234.469 703.417 281.365 703.417 328.261 703.417 375.156 750.313 375.156 750.313 422.052 750.313 468.948 750.313 515.844 703.417 515.844 703.417 562.739 703.417 609.635 656.531 609.635 656.531 656.531 609.635 656.531 562.739 656.531 562.739 703.417 562.739 750.313 562.739 797.208 562.739 844.104 562.739 891 609.635 891 609.635 844.104 656.531 844.104 703.417 844.104 703.417 797.208 750.313 797.208 750.313 750.313 797.208 750.313 797.208 703.417 844.104 703.417 844.104 656.531 844.104 609.635 891 609.635 891 562.739 891 515.844 891 468.948 891 422.052 891 375.156 891 328.261 891 281.365 844.104 281.365"/><polygon class="cls-1" points="281.365 703.417 328.261 703.417 328.261 656.531 281.365 656.531 234.469 656.531 234.469 703.417 281.365 703.417"/><rect class="cls-1" x="187.58307" y="609.63519" width="46.88599" height="46.89575"/></g></g></svg>