<svg id="Layer_6" data-name="Layer 6" xmlns="http://www.w3.org/2000/svg" xmlns:xlink="http://www.w3.org/1999/xlink" width="317.26932" height="279.20116" viewBox="0 0 317.26932 279.20116"><defs><style>.cls-1{fill:#29abe2;}.cls-2,.cls-3{fill:none;}.cls-2{stroke-miterlimit:10;stroke-width:76px;stroke:url(#linear-gradient);}.cls-3{stroke:#0071bc;stroke-linejoin:round;stroke-width:57px;}.cls-4{fill:url(#linear-gradient-2);}.cls-5{fill:url(#linear-gradient-3);}.cls-6{fill:url(#linear-gradient-4);}</style><linearGradient id="linear-gradient" x1="316.7059" y1="493.19936" x2="468.50366" y2="493.19936" gradientUnits="userSpaceOnUse"><stop offset="0" stop-color="#2e3192"/><stop offset="0.00117" stop-color="#2e3292"/><stop offset="0.0858" stop-color="#2c57ab"/><stop offset="0.17344" stop-color="#2b75bf"/><stop offset="0.26576" stop-color="#2a8dce"/><stop offset="0.36349" stop-color="#2a9ed9"/><stop offset="0.47034" stop-color="#29a8e0"/><stop offset="0.60335" stop-color="#29abe2"/></linearGradient><linearGradient id="linear-gradient-2" x1="183.78315" y1="493.00043" x2="322.4196" y2="493.00043" gradientUnits="userSpaceOnUse"><stop offset="0" stop-color="#29abe2"/><stop offset="0.17191" stop-color="#29a7df"/><stop offset="0.34534" stop-color="#2a9bd7"/><stop offset="0.51953" stop-color="#2a87ca"/><stop offset="0.69427" stop-color="#2c6ab8"/><stop offset="0.86789" stop-color="#2d46a0"/><stop offset="0.95531" stop-color="#2e3192"/></linearGradient><linearGradient id="linear-gradient-3" x1="223.22222" y1="493.00043" x2="322.4196" y2="493.00043" gradientUnits="userSpaceOnUse"><stop offset="0" stop-color="#0071bc"/><stop offset="0.20524" stop-color="#016db8"/><stop offset="0.39678" stop-color="#0462ae"/><stop offset="0.58295" stop-color="#0a4f9c"/><stop offset="0.76454" stop-color="#113583"/><stop offset="0.93855" stop-color="#1b1464"/></linearGradient><linearGradient id="linear-gradient-4" x1="279.22222" y1="493.00043" x2="322.4196" y2="493.00043" gradientUnits="userSpaceOnUse"><stop offset="0" stop-color="#2e3192"/><stop offset="0.28766" stop-color="#2d2f8f"/><stop offset="0.53249" stop-color="#282884"/><stop offset="0.76082" stop-color="#211d73"/><stop offset="0.89944" stop-color="#1b1464"/></linearGradient></defs><title>Qicon</title><polygon class="cls-1" points="235.579 279.201 190.215 236.352 213.513 181.114 317.269 279.119 235.579 279.201"/><path class="cls-2" d="M316.7059,594.68016c62.84877,0,113.79776-45.4345,113.79776-101.4808s-50.949-101.4808-113.79776-101.4808" transform="translate(-183.78315 -353.54675)"/><path class="cls-3" d="M322.4196,493.27412" transform="translate(-183.78315 -353.54675)"/><path class="cls-4" d="M322.4196,626.44986a5.83284,5.83284,0,0,1-5.907,5.99854c-70.67017-3.24532-132.72941-64.43682-132.72941-139.448s62.05924-136.20264,132.72941-139.448a5.83284,5.83284,0,0,1,5.907,5.99855Z" transform="translate(-183.78315 -353.54675)"/><path class="cls-5" d="M322.4196,626.44986c0,3.39309-1.91684,6.14678-4.22661,5.99854-50.566-3.24532-94.97077-64.43682-94.97077-139.448S267.627,356.79779,318.193,353.55246c2.30977-.14824,4.22661,2.60545,4.22661,5.99855Z" transform="translate(-183.78315 -353.54675)"/><path class="cls-6" d="M322.4196,626.44986c0,3.39309-.83472,6.14678-1.84056,5.99854-22.01994-3.24532-41.35682-64.43682-41.35682-139.448s19.33688-136.20264,41.35682-139.448c1.00584-.14824,1.84056,2.60545,1.84056,5.99855Z" transform="translate(-183.78315 -353.54675)"/></svg>