<svg xmlns="http://www.w3.org/2000/svg" width="714.28003" height="571.41998" viewBox="0 0 714.28003 571.41998"><defs><style>.cls-1{fill:none;}.cls-2{fill:#f2f2f2;}</style></defs><title>discord</title><g id="Layer_2" data-name="Layer 2"><g id="Layer_1-2" data-name="Layer 1"><polygon class="cls-1" points="285.71 380.95 285.71 333.33 285.71 285.71 238.09 285.71 190.47 285.71 190.47 333.33 190.47 380.95 238.09 380.95 285.71 380.95"/><polygon class="cls-1" points="523.81 380.95 523.81 333.33 523.81 285.71 476.19 285.71 428.57 285.71 428.57 333.33 428.57 380.95 476.19 380.95 523.81 380.95"/><rect class="cls-2" x="476.19" width="47.62" height="47.62"/><rect class="cls-2" x="190.47003" width="47.62" height="47.62"/><path class="cls-2" d="M666.66,238.09V142.85H619.04V95.23H571.43V47.62H523.81V95.23H190.47V47.62H142.85V95.23H95.24v47.62H47.62V238.09H0V523.81H47.62v47.61H190.47V523.81H142.85V476.19h95.24v47.62h238.1V476.19h95.24v47.62H523.81v47.61H666.66V523.81h47.62V238.09ZM190.47,333.33V285.71h95.24v95.24H190.47Zm238.1,0V285.71h95.24v95.24H428.57Z"/></g></g></svg>