<svg xmlns="http://www.w3.org/2000/svg" width="620" height="619.99994" viewBox="0 0 620 619.99994"><defs><style>.cls-1{fill:none;}.cls-2{fill:#f2f2f2;}</style></defs><title>instagram</title><g id="Layer_2" data-name="Layer 2"><g id="Layer_1-2" data-name="Layer 1"><polygon class="cls-1" points="572.306 429.235 572.306 381.541 572.306 333.847 572.306 286.153 572.306 238.459 572.306 190.765 572.306 143.071 572.306 95.378 524.622 95.378 524.622 143.071 524.622 190.765 476.928 190.765 429.235 190.765 429.235 238.459 476.928 238.459 476.928 286.153 476.928 333.847 476.928 381.541 429.235 381.541 429.235 429.235 381.541 429.235 381.541 476.928 333.847 476.928 286.153 476.928 238.459 476.928 238.459 429.235 190.765 429.235 190.765 381.541 143.072 381.541 143.072 333.847 143.072 286.153 143.072 238.459 190.765 238.459 190.765 190.765 238.459 190.765 238.459 143.071 286.153 143.071 333.847 143.071 381.541 143.071 381.541 190.765 429.235 190.765 429.235 143.071 429.235 95.378 476.928 95.378 524.622 95.378 524.622 47.694 476.928 47.694 429.235 47.694 381.541 47.694 333.847 47.694 286.153 47.694 238.459 47.694 190.765 47.694 143.072 47.694 95.378 47.694 95.378 95.378 47.694 95.378 47.694 143.071 47.694 190.765 47.694 238.459 47.694 286.153 47.694 333.847 47.694 381.541 47.694 429.235 47.694 476.928 47.694 524.622 95.378 524.622 95.378 572.306 143.072 572.306 190.765 572.306 238.459 572.306 286.153 572.306 333.847 572.306 381.541 572.306 429.235 572.306 476.928 572.306 524.622 572.306 524.622 524.622 572.306 524.622 572.306 476.928 572.306 429.235"/><polygon class="cls-1" points="286.153 190.765 286.153 238.459 238.459 238.459 238.459 286.153 190.765 286.153 190.765 333.847 238.459 333.847 238.459 381.541 286.153 381.541 286.153 429.235 333.847 429.235 333.847 381.541 381.541 381.541 381.541 333.847 429.235 333.847 429.235 286.153 381.541 286.153 381.541 238.459 333.847 238.459 333.847 190.765 286.153 190.765"/><polygon class="cls-2" points="429.235 95.378 429.235 143.071 429.235 190.765 476.928 190.765 524.622 190.765 524.622 143.071 524.622 95.378 476.928 95.378 429.235 95.378"/><polygon class="cls-2" points="572.306 95.378 572.306 143.071 572.306 190.765 572.306 238.459 572.306 286.153 572.306 333.847 572.306 381.541 572.306 429.235 572.306 476.928 572.306 524.622 620 524.622 620 476.928 620 429.235 620 381.541 620 333.847 620 286.153 620 238.459 620 190.765 620 143.071 620 95.378 572.306 95.378"/><path class="cls-2" d="M381.54077,143.07147H238.45923v47.69391H190.76538v47.69385H143.07153V381.54077h47.69385v47.69379h47.69385v47.69385H381.54077V429.23456h47.69385V381.54077h47.69385V238.45923H429.23462V190.76538H381.54077Zm0,95.38776v47.69385h47.69385v47.69384H381.54077v47.69385H333.84692v47.69379H286.15308V381.54077H238.45923V333.84692H190.76538V286.15308h47.69385V238.45923h47.69385V190.76538h47.69384v47.69385Z"/><rect class="cls-2" x="47.69385" y="524.62225" width="47.6839" height="47.68384"/><polygon class="cls-2" points="429.235 572.306 381.541 572.306 333.847 572.306 286.153 572.306 238.459 572.306 190.765 572.306 143.072 572.306 95.378 572.306 95.378 620 143.072 620 190.765 620 238.459 620 286.153 620 333.847 620 381.541 620 429.235 620 476.928 620 524.622 620 524.622 572.306 476.928 572.306 429.235 572.306"/><rect class="cls-2" x="524.62225" y="524.62225" width="47.6839" height="47.68384"/><polygon class="cls-2" points="47.694 429.235 47.694 381.541 47.694 333.847 47.694 286.153 47.694 238.459 47.694 190.765 47.694 143.071 47.694 95.378 0 95.378 0 143.071 0 190.765 0 238.459 0 286.153 0 333.847 0 381.541 0 429.235 0 476.928 0 524.622 47.694 524.622 47.694 476.928 47.694 429.235"/><rect class="cls-2" x="47.69385" y="47.69385" width="47.6839" height="47.68378"/><polygon class="cls-2" points="190.765 47.694 238.459 47.694 286.153 47.694 333.847 47.694 381.541 47.694 429.235 47.694 476.928 47.694 524.622 47.694 524.622 0 476.928 0 429.235 0 381.541 0 333.847 0 286.153 0 238.459 0 190.765 0 143.072 0 95.378 0 95.378 47.694 143.072 47.694 190.765 47.694"/><rect class="cls-2" x="524.62225" y="47.69385" width="47.6839" height="47.68378"/></g></g></svg>