<svg xmlns="http://www.w3.org/2000/svg" width="917.38" height="917.38" viewBox="0 0 917.38 917.38"><defs><style>.cls-1{fill:none;}.cls-2{fill:#f2f2f2;}</style></defs><title>linkedin</title><g id="Layer_2" data-name="Layer 2"><g id="Layer_1-2" data-name="Layer 1"><polygon class="cls-1" points="144.853 289.695 193.137 289.695 241.411 289.695 241.411 241.411 289.695 241.411 289.695 193.137 289.695 144.853 241.411 144.853 241.411 96.568 193.137 96.568 144.853 96.568 144.853 144.853 96.568 144.853 96.568 193.137 96.568 241.411 144.853 241.411 144.853 289.695"/><polygon class="cls-1" points="724.243 337.979 675.969 337.979 627.685 337.979 579.401 337.979 531.116 337.979 531.116 386.264 482.832 386.264 482.832 337.979 434.548 337.979 386.264 337.979 337.979 337.979 337.979 386.264 337.979 434.548 337.979 482.832 337.979 531.116 337.979 579.401 337.979 627.685 337.979 675.969 337.979 724.243 337.979 772.527 386.264 772.527 434.548 772.527 482.832 772.527 482.832 724.243 482.832 675.969 482.832 627.685 482.832 579.401 482.832 531.116 482.832 482.832 531.116 482.832 579.401 482.832 627.685 482.832 627.685 531.116 627.685 579.401 627.685 627.685 627.685 675.969 627.685 724.243 627.685 772.527 675.969 772.527 724.243 772.527 772.527 772.527 772.527 724.243 772.527 675.969 772.527 627.685 772.527 579.401 772.527 531.116 772.527 482.832 772.527 434.548 772.527 386.264 724.243 386.264 724.243 337.979"/><polygon class="cls-1" points="241.411 772.527 289.695 772.527 289.695 724.243 289.695 675.969 289.695 627.685 289.695 579.401 289.695 531.116 289.695 482.832 289.695 434.548 289.695 386.264 289.695 337.979 241.411 337.979 193.137 337.979 144.853 337.979 144.853 386.264 144.853 434.548 144.853 482.832 144.853 531.116 144.853 579.401 144.853 627.685 144.853 675.969 144.853 724.243 144.853 772.527 193.137 772.527 241.411 772.527"/><path class="cls-2" d="M869.09576,0H0V917.38H917.38V0ZM96.56842,193.13684V144.85266h48.28424V96.56842H241.411v48.28424h48.28424V241.411H241.411v48.28418H144.85266V241.411H96.56842Zm675.95892,241.411V772.52728H627.68475V482.83209H482.83209V772.52728H337.97943V337.97943H482.83209v48.28424h48.28424V337.97943H724.2431v48.28424h48.28424ZM144.85266,724.243V337.97943H289.69525V772.52728H144.85266Z"/></g></g></svg>