<svg id="Layer_8" data-name="Layer 8" xmlns="http://www.w3.org/2000/svg" xmlns:xlink="http://www.w3.org/1999/xlink" width="1436.14719" height="279.20116" viewBox="0 0 1436.14719 279.20116"><defs><style>.cls-1{fill:#29abe2;}.cls-2,.cls-3{fill:none;}.cls-2{stroke-miterlimit:10;stroke-width:76px;stroke:url(#linear-gradient);}.cls-3{stroke:#0071bc;stroke-linejoin:round;stroke-width:57px;}.cls-4{fill:url(#linear-gradient-2);}.cls-5{fill:url(#linear-gradient-3);}.cls-6{fill:url(#linear-gradient-4);}.cls-7{fill:url(#linear-gradient-5);}.cls-8{fill:url(#linear-gradient-6);}.cls-9{fill:url(#linear-gradient-7);}.cls-10{fill:url(#linear-gradient-8);}.cls-11{fill:url(#linear-gradient-9);}.cls-12{fill:url(#linear-gradient-10);}.cls-13{fill:url(#linear-gradient-11);}.cls-14{fill:url(#linear-gradient-12);}</style><linearGradient id="linear-gradient" x1="319.03924" y1="802.86603" x2="470.83699" y2="802.86603" gradientUnits="userSpaceOnUse"><stop offset="0" stop-color="#2e3192"/><stop offset="0.00117" stop-color="#2e3292"/><stop offset="0.0858" stop-color="#2c57ab"/><stop offset="0.17344" stop-color="#2b75bf"/><stop offset="0.26576" stop-color="#2a8dce"/><stop offset="0.36349" stop-color="#2a9ed9"/><stop offset="0.47034" stop-color="#29a8e0"/><stop offset="0.60335" stop-color="#29abe2"/></linearGradient><linearGradient id="linear-gradient-2" x1="186.11648" y1="802.6671" x2="324.75293" y2="802.6671" gradientUnits="userSpaceOnUse"><stop offset="0" stop-color="#29abe2"/><stop offset="0.17191" stop-color="#29a7df"/><stop offset="0.34534" stop-color="#2a9bd7"/><stop offset="0.51953" stop-color="#2a87ca"/><stop offset="0.69427" stop-color="#2c6ab8"/><stop offset="0.86789" stop-color="#2d46a0"/><stop offset="0.95531" stop-color="#2e3192"/></linearGradient><linearGradient id="linear-gradient-3" x1="225.55556" y1="802.6671" x2="324.75293" y2="802.6671" gradientUnits="userSpaceOnUse"><stop offset="0" stop-color="#0071bc"/><stop offset="0.20524" stop-color="#016db8"/><stop offset="0.39678" stop-color="#0462ae"/><stop offset="0.58295" stop-color="#0a4f9c"/><stop offset="0.76454" stop-color="#113583"/><stop offset="0.93855" stop-color="#1b1464"/></linearGradient><linearGradient id="linear-gradient-4" x1="496.99805" y1="833.77444" x2="654.64355" y2="833.77444" gradientUnits="userSpaceOnUse"><stop offset="0" stop-color="#29abe2"/><stop offset="1" stop-color="#2990e2"/></linearGradient><linearGradient id="linear-gradient-5" x1="664.40527" y1="832.65823" x2="820.37646" y2="832.65823" xlink:href="#linear-gradient-4"/><linearGradient id="linear-gradient-6" x1="834.60645" y1="804.33792" x2="922.49707" y2="804.33792" xlink:href="#linear-gradient-4"/><linearGradient id="linear-gradient-7" x1="930.8667" y1="802.9429" x2="983.87988" y2="802.9429" xlink:href="#linear-gradient-4"/><linearGradient id="linear-gradient-8" x1="998.94531" y1="801.54788" x2="1111.66895" y2="801.54788" xlink:href="#linear-gradient-4"/><linearGradient id="linear-gradient-9" x1="1113.62012" y1="833.77444" x2="1271.26563" y2="833.77444" xlink:href="#linear-gradient-4"/><linearGradient id="linear-gradient-10" x1="1289.11816" y1="831.26321" x2="1436.71973" y2="831.26321" xlink:href="#linear-gradient-4"/><linearGradient id="linear-gradient-11" x1="1450.66699" y1="804.33792" x2="1622.26367" y2="804.33792" xlink:href="#linear-gradient-4"/><linearGradient id="linear-gradient-12" x1="281.55556" y1="802.6671" x2="324.75293" y2="802.6671" gradientUnits="userSpaceOnUse"><stop offset="0" stop-color="#2e3192"/><stop offset="0.28766" stop-color="#2d2f8f"/><stop offset="0.53249" stop-color="#282884"/><stop offset="0.76082" stop-color="#211d73"/><stop offset="0.89944" stop-color="#1b1464"/></linearGradient></defs><title>qiconLONG2</title><polygon class="cls-1" points="235.579 279.201 190.215 236.352 213.513 181.114 317.269 279.119 235.579 279.201"/><path class="cls-2" d="M319.03924,904.34683c62.84876,0,113.79775-45.4345,113.79775-101.4808s-50.949-101.4808-113.79775-101.4808" transform="translate(-186.11648 -663.21341)"/><path class="cls-3" d="M324.75293,802.94079" transform="translate(-186.11648 -663.21341)"/><path class="cls-4" d="M324.75293,936.11653a5.83283,5.83283,0,0,1-5.907,5.99854c-70.67018-3.24533-132.72942-64.43683-132.72942-139.448s62.05924-136.20264,132.72942-139.448a5.83283,5.83283,0,0,1,5.907,5.99854Z" transform="translate(-186.11648 -663.21341)"/><path class="cls-5" d="M324.75293,936.11653c0,3.39309-1.91683,6.14678-4.22661,5.99854-50.566-3.24533-94.97076-64.43683-94.97076-139.448s44.40472-136.20264,94.97076-139.448c2.30978-.14824,4.22661,2.60545,4.22661,5.99854Z" transform="translate(-186.11648 -663.21341)"/><path class="cls-6" d="M496.99805,855.25442V759.97415h53.01367V842.9429q0,9.312,4.32471,14.64844,4.32275,5.34228,11.85839,5.34082a33.95423,33.95423,0,0,0,8.37061-1.05567,24.8033,24.8033,0,0,0,8.51025-4.23242,40.09361,40.09361,0,0,0,8.50977-8.999v-88.6709h53.01367v86.48242q0,7.39014,2.23193,10.2627,2.23023,2.87694,7.8125,3.42285V904.7847q-6.977,1.39306-12.55566,2.09277a80.66933,80.66933,0,0,1-9.76562.69726q-13.39308,0-21.20557-4.96972-7.81421-4.97022-10.04443-15.1416l-1.11622-5.22266a59.3719,59.3719,0,0,1-24.69287,19.41406q-14.37378,5.918-32.50586,5.91992-22.04442,0-33.90087-13.49316Q496.99414,880.59036,496.99805,855.25442Z" transform="translate(-186.11648 -663.21341)"/><path class="cls-7" d="M664.40527,861.232a42.382,42.382,0,0,1,8.0918-25.63965q8.08887-11.10351,22.46094-17.41211,14.36718-6.30468,32.78467-6.30859a91.37726,91.37726,0,0,1,16.32226,1.39551,49.58817,49.58817,0,0,1,13.25342,4.18457v-4.46387q0-9.92139-5.99854-14.72754-6.00366-4.79883-19.39209-4.80371a64.81138,64.81138,0,0,0-23.019,4.0459,112.43906,112.43906,0,0,0-22.46094,11.85742l-15.34619-32.92383a115.45812,115.45812,0,0,1,31.11084-14.08984,128.48979,128.48979,0,0,1,35.0166-4.60449q34.87574,0,53.99024,15.38964,19.10815,15.38819,19.11279,45.61524v27.78027q0,7.34913,2.23193,10.21,2.23023,2.86377,7.8125,3.40528V904.7847q-6.42114,1.39306-12.1372,2.09277a85.83417,85.83417,0,0,1-10.18408.69726q-14.23023,0-21.624-5.16211-7.396-5.15917-9.626-15.206l-1.11622-5.30176a67.54014,67.54014,0,0,1-22.60058,19.11328,59.32055,59.32055,0,0,1-27.34375,6.55664,56.47688,56.47688,0,0,1-26.22754-6.0332,46.52463,46.52463,0,0,1-18.41553-16.58887A43.35322,43.35322,0,0,1,664.40527,861.232Zm85.938,3.12109a22.21013,22.21013,0,0,0,5.022-4.61718,8.30372,8.30372,0,0,0,1.95313-5.14356V844.30325a67.3328,67.3328,0,0,0-10.18408-2.6377,56.98242,56.98242,0,0,0-10.18408-1.05468q-9.48853,0-16.04346,4.48535-6.55958,4.48682-6.55713,11.34375a11.06809,11.06809,0,0,0,2.23242,6.72754,14.76272,14.76272,0,0,0,6.13818,4.74707,22.01961,22.01961,0,0,0,8.92872,1.71387,36.59193,36.59193,0,0,0,9.90527-1.45215A31.63234,31.63234,0,0,0,750.34326,864.35305Z" transform="translate(-186.11648 -663.21341)"/><path class="cls-8" d="M834.60645,701.1011h53.01367V846.47024q0,8.09474,3.4873,12.416,3.48559,4.32861,10.18457,4.32422a26.49023,26.49023,0,0,0,7.2544-1.11524,31.34093,31.34093,0,0,0,7.25439-3.06933l6.69629,39.0625a97.43728,97.43728,0,0,1-21.34473,6.97558,108.6229,108.6229,0,0,1-22.46093,2.51074q-21.208,0-32.645-11.02148-11.4441-11.01855-11.43994-31.38965Z" transform="translate(-186.11648 -663.21341)"/><path class="cls-9" d="M930.8667,745.74368V701.1011h53.01318v44.64258Zm0,159.041V758.021h53.01318V904.7847Z" transform="translate(-186.11648 -663.21341)"/><path class="cls-10" d="M1017.082,904.7847V814.941H998.94531V775.04153H1017.082v-15.9043q0-18.416,6.69629-32.08691a50.39925,50.39925,0,0,1,18.834-21.20605q12.13625-7.53371,28.32032-7.53321a95.65514,95.65514,0,0,1,19.53125,2.09278,144.707,144.707,0,0,1,21.20508,6.27734l-8.92872,40.17871a65.24166,65.24166,0,0,0-10.04394-2.79,50.9021,50.9021,0,0,0-9.7666-1.11621q-6.42042,0-9.626,3.48828-3.21093,3.4922-3.208,10.74219v17.85742h32.08692V814.941H1070.0957V904.7847Z" transform="translate(-186.11648 -663.21341)"/><path class="cls-11" d="M1113.62012,855.25442V759.97415h53.01367V842.9429q0,9.312,4.32422,14.64844,4.32275,5.34228,11.8584,5.34082a33.95028,33.95028,0,0,0,8.37011-1.05567,24.801,24.801,0,0,0,8.51075-4.23242,40.08288,40.08288,0,0,0,8.50976-8.999v-88.6709h53.01367v86.48242q0,7.39014,2.23243,10.2627,2.22948,2.87694,7.8125,3.42285V904.7847q-6.97853,1.39306-12.55567,2.09277a80.6773,80.6773,0,0,1-9.7666.69726q-13.39159,0-21.20508-4.96972-7.81494-4.97022-10.04492-15.1416l-1.11523-5.22266a59.37947,59.37947,0,0,1-24.69336,19.41406q-14.37451,5.918-32.50586,5.91992-22.04443,0-33.90039-13.49316Q1113.61475,880.59036,1113.62012,855.25442Z" transform="translate(-186.11648 -663.21341)"/><path class="cls-12" d="M1436.71973,904.7847h-53.01368V824.20462q0-10.6128-4.88281-15.38086a15.71509,15.71509,0,0,0-11.30078-4.76465,21.3247,21.3247,0,0,0-9.48633,2.50684,32.40693,32.40693,0,0,0-9.208,6.99707,35.77229,35.77229,0,0,0-6.69629,10.293V904.7847h-53.01368V759.97415h47.71289v21.90722a47.13167,47.13167,0,0,1,13.39258-13.30566,61.58348,61.58348,0,0,1,18.69434-8.0918,92.42528,92.42528,0,0,1,23.1582-2.74218q15.06738,0,23.9961,5.21484a34.6873,34.6873,0,0,1,13.39257,13.44043,53.056,53.056,0,0,1,5.85938,17.14648,106.49563,106.49563,0,0,1,1.39551,16.32227Z" transform="translate(-186.11648 -663.21341)"/><path class="cls-13" d="M1450.667,832.38333q0-21.40284,8.23145-38.28223a66.28216,66.28216,0,0,1,22.74023-26.61523q14.50343-9.74415,33.20313-9.74414a53.82872,53.82872,0,0,1,26.22754,6.55761,43.96691,43.96691,0,0,1,18.13574,17.9961V701.1011h53.01367V846.191q0,7.53369,2.23242,10.46289,2.22949,2.92968,7.8125,3.48828V904.7847q-13.67432,2.78613-22.32129,2.79-13.39306,0-21.20605-5.02246-7.81348-5.02148-10.04395-15.3457l-1.11621-5.30176a45.80134,45.80134,0,0,1-20.36816,19.53125,62.626,62.626,0,0,1-27.34375,6.13867,69.24029,69.24029,0,0,1-27.7627-5.48828,65.13519,65.13519,0,0,1-22.043-15.50293,68.95705,68.95705,0,0,1-14.36914-23.874A88.41014,88.41014,0,0,1,1450.667,832.38333Zm108.81739,16.083V823.28079a35.75663,35.75663,0,0,0-6.83594-10.84668,33.93253,33.93253,0,0,0-9.626-7.36816,24.2464,24.2464,0,0,0-21.624-.27051,26.289,26.289,0,0,0-8.50977,6.70117,30.814,30.814,0,0,0-5.58105,9.91406,36.47025,36.47025,0,0,0-1.95313,12.04981,32.92046,32.92046,0,0,0,2.09278,12.05859,26.36332,26.36332,0,0,0,5.999,9.24316,27.55138,27.55138,0,0,0,9.208,6.0293,30.95443,30.95443,0,0,0,11.71875,2.14063,26.70612,26.70612,0,0,0,7.2539-.9375,28.609,28.609,0,0,0,6.418-2.67676,30.38821,30.38821,0,0,0,5.999-4.55567A46.07385,46.07385,0,0,0,1559.48438,848.46634Z" transform="translate(-186.11648 -663.21341)"/><path class="cls-14" d="M324.75293,936.11653c0,3.39309-.83472,6.14678-1.84056,5.99854-22.01993-3.24533-41.35681-64.43683-41.35681-139.448s19.33688-136.20264,41.35681-139.448c1.00584-.14824,1.84056,2.60545,1.84056,5.99854Z" transform="translate(-186.11648 -663.21341)"/></svg>