<svg version="1.1" xmlns="http://www.w3.org/2000/svg" xmlns:xlink="http://www.w3.org/1999/xlink" x="0px" y="0px" width="938px"
          height="468px" viewBox="0 0 938 468" style="enable-background:new 0 0 938 468;" xml:space="preserve">

                    <defs>
                    <style>
                    .st0{
  opacity:0.5;fill:#8629E3;
}
.st1{
  opacity:0.5;fill:#29E33B;
}
.st2{
  opacity:0.5;fill:#29ABE2;
}
                    </style>
                </defs>
                <path class="st0" d="
         M938,468
         H0
         c0,0,65.10361,0,134,0
         c41.38771,0,78,0,136,0
         c108,0,218,0,320,0
         c68,0,91.23712,0,186,0
         C892,468,938,468,938,468
         z">
                  <animate begin="1s" fill="freeze" attributeName="d" dur="500ms" to="
         M938,468
         H0
         c0,0,65.10361-37,134-37
         c41.38771,0,73,15,131,15
         C373,446,484,0,586,0
         c68,0,83.23712,151,178,151
         C880,151,938,468,938,468
         z" />
                </path>
                <path class="st1" d="
           M938,468
           H0
           c0,0,198,0,278,0
           c41,0,78.98959,0,127,0
           c123,0,198,0,276,0
           C794.37164,468,938,468,938,468
           z"
                >
                  <animate begin="1.25s" fill="freeze" attributeName="d" dur="500ms" to="
           M938,468
           H0
           c0,0,203-108,283-108
           c41,0,73.98959,26,122,26
           c123,0,200-293,278-293
           C796.37164,93,938,468,938,468
           z" />
                </path>
                <path class="st2" d="
         M938,468
         H0
         c0,0,109.07005,0,159,0
         c33,0,76,0,104,0
         c31.78052,0,86,0,118,0
         c38,0,104,0,139,0
         c43.0094,0,52.99054,0,96,0
         c25,0,47.64343,0,65,0
         c69,0,56,0,115,0
         C859,468,938,468,938,468
         z">
                  <animate begin="1.5s" fill="freeze" attributeName="d" dur="500ms" to="M938,468
         H0
         c0,0,118.07782-108.88043,168-108
         c29.81567,0.52582,70,68,98,68
         c31.78052,0,92-28,124-28
         c33.41592,0,94,35,129,35
         c43.0094,0,42.99054-149,86-149
         c25,0,50.64343,14,68,14
         c69,0,75-268,134-268
         C870,32,938,468,938,468
         z" />
                </path>
       </svg>