<?xml version="1.0" encoding="utf-8"?>
<!-- Generator: Adobe Illustrator 23.0.1, SVG Export Plug-In . SVG Version: 6.00 Build 0)  -->
<svg version="1.1" id="Layer_1" xmlns="http://www.w3.org/2000/svg" xmlns:xlink="http://www.w3.org/1999/xlink" x="0px" y="0px"
	 viewBox="0 0 1920 1080" style="enable-background:new 0 0 1920 1080;" xml:space="preserve">
<style type="text/css">
	.st0{opacity:0.5;fill:#FBB03B;}
	.st1{opacity:0.5;fill:#D4145A;}
	.st2{opacity:0.5;fill:#4F46E5;}
</style>
<path class="st0" d="M1440,648H502c0,0,65.10364-37,134-37c41.3877,0,73,15,131,15c108,0,219-446,321-446c68,0,83.23718,151,178,151
	C1382,331,1440,648,1440,648z"/>
<path class="st1" d="M1440,648H502c0,0,203-108,283-108c41,0,73.98956,26,122,26c123,0,200-293,278-293
	C1298.37158,273,1440,648,1440,648z"/>
<path class="st2" d="M1440,648H502c0,0,118.07782-108.88043,168-108c29.81567,0.52582,70,68,98,68c31.78052,0,92-28,124-28
	c33.41595,0,94,35,129,35c43.0094,0,42.99048-149,86-149c25,0,50.64343,14,68,14c69,0,75-268,134-268C1372,212,1440,648,1440,648z"
	/>
</svg>
