<?xml version="1.0" encoding="utf-8"?>
<!-- Generator: Adobe Illustrator 23.0.1, SVG Export Plug-In . SVG Version: 6.00 Build 0)  -->
<svg version="1.1" id="Layer_1" xmlns="http://www.w3.org/2000/svg" xmlns:xlink="http://www.w3.org/1999/xlink" x="0px" y="0px"
	 viewBox="0 0 938 468" style="enable-background:new 0 0 938 468;" xml:space="preserve">
<style type="text/css">
	.st0{opacity:0.5;fill:#D4145A;enable-background:new    ;}
	.st1{opacity:0.5;fill:#4F46E5;enable-background:new    ;}
</style>
<path class="st0" d="M938,468H0c0,0,67.63793,0,167.33333,0C264,468,362,468,407.33334,468c66,0,187.33334,0,267.33334,0
	C763.33331,468,938,468,938,468z"/>
<path class="st1" d="M938,468H0c0,0,118.07782-108.88043,168-108c29.81567,0.52582,70,68,98,68c31.78052,0,92-28,124-28
	c33.41592,0,94,35,129,35c43.0094,0,42.99054-149,86-149c25,0,50.64343,14,68,14c69,0,75-268,134-268C870,32,938,468,938,468z"/>
<path class="st0" d="M938,468H0c0,0,203-108,283-108c41,0,73.98959,26,122,26c123,0,200-293,278-293C796.37164,93,938,468,938,468z"
	/>
</svg>
